<svg width="103" height="90" viewBox="0 0 103 90" fill="none" xmlns="http://www.w3.org/2000/svg">
<path d="M55.125 13.1719C55.125 11.966 54.5521 10.8095 53.5324 9.95675C52.5127 9.10404 51.1296 8.625 49.6875 8.625C48.2454 8.625 46.8623 9.10404 45.8426 9.95675C44.8229 10.8095 44.25 11.966 44.25 13.1719V38.9375H13.4375C11.9954 38.9375 10.6123 39.4165 9.59261 40.2692C8.57288 41.122 8 42.2785 8 43.4844C8 44.6903 8.57288 45.8468 9.59261 46.6995C10.6123 47.5522 11.9954 48.0312 13.4375 48.0312H44.25V73.7969C44.25 75.0028 44.8229 76.1593 45.8426 77.012C46.8623 77.8647 48.2454 78.3438 49.6875 78.3438C51.1296 78.3438 52.5127 77.8647 53.5324 77.012C54.5521 76.1593 55.125 75.0028 55.125 73.7969V48.0312H85.9375C87.3796 48.0312 88.7627 47.5522 89.7824 46.6995C90.8021 45.8468 91.375 44.6903 91.375 43.4844C91.375 42.2785 90.8021 41.122 89.7824 40.2692C88.7627 39.4165 87.3796 38.9375 85.9375 38.9375H55.125V13.1719Z" fill="black"/>
</svg>
