<svg width="105" height="98" viewBox="0 0 105 98" fill="none" xmlns="http://www.w3.org/2000/svg">
<g filter="url(#filter0_i_126_63)">
<path d="M79.5241 3.07857C81.515 11.0251 81.7539 19.6729 79.6037 28.6323C74.5867 49.3946 57.1464 65.6773 35.7244 69.4558C24.1374 71.5204 13.1079 69.9622 3.5118 65.8721C1.282 64.8983 -0.828345 67.3913 0.326372 69.4948C10.8781 88.5042 32.6186 100.658 56.9474 97.5026C81.7539 94.2694 101.623 74.4809 104.609 50.1737C106.998 29.9957 98.2385 11.7653 83.5855 0.507624C81.7141 -0.894713 78.9666 0.819254 79.5241 3.07857Z" fill="url(#paint0_linear_126_63)"/>
<path d="M79.5241 3.07857C81.515 11.0251 81.7539 19.6729 79.6037 28.6323C74.5867 49.3946 57.1464 65.6773 35.7244 69.4558C24.1374 71.5204 13.1079 69.9622 3.5118 65.8721C1.282 64.8983 -0.828345 67.3913 0.326372 69.4948C10.8781 88.5042 32.6186 100.658 56.9474 97.5026C81.7539 94.2694 101.623 74.4809 104.609 50.1737C106.998 29.9957 98.2385 11.7653 83.5855 0.507624C81.7141 -0.894713 78.9666 0.819254 79.5241 3.07857Z" fill="url(#paint1_radial_126_63)"/>
<path d="M79.5241 3.07857C81.515 11.0251 81.7539 19.6729 79.6037 28.6323C74.5867 49.3946 57.1464 65.6773 35.7244 69.4558C24.1374 71.5204 13.1079 69.9622 3.5118 65.8721C1.282 64.8983 -0.828345 67.3913 0.326372 69.4948C10.8781 88.5042 32.6186 100.658 56.9474 97.5026C81.7539 94.2694 101.623 74.4809 104.609 50.1737C106.998 29.9957 98.2385 11.7653 83.5855 0.507624C81.7141 -0.894713 78.9666 0.819254 79.5241 3.07857Z" fill="url(#paint2_radial_126_63)"/>
</g>
<path d="M79.5241 3.07857C81.515 11.0251 81.7539 19.6729 79.6037 28.6323C74.5867 49.3946 57.1464 65.6773 35.7244 69.4558C24.1374 71.5204 13.1079 69.9622 3.5118 65.8721C1.282 64.8983 -0.828345 67.3913 0.326372 69.4948C10.8781 88.5042 32.6186 100.658 56.9474 97.5026C81.7539 94.2694 101.623 74.4809 104.609 50.1737C106.998 29.9957 98.2385 11.7653 83.5855 0.507624C81.7141 -0.894713 78.9666 0.819254 79.5241 3.07857Z" fill="url(#paint3_radial_126_63)"/>
<g filter="url(#filter1_f_126_63)">
<path d="M39.5873 86.3609C41.2453 86.3609 42.8354 85.7166 44.0077 84.5696C45.1801 83.4227 45.8387 81.8671 45.8387 80.2451C45.8387 78.6231 45.1801 77.0676 44.0077 75.9207C42.8354 74.7737 41.2453 74.1294 39.5873 74.1294C37.9294 74.1294 36.3393 74.7737 35.1669 75.9207C33.9946 77.0676 33.3359 78.6231 33.3359 80.2451C33.3359 81.8671 33.9946 83.4227 35.1669 84.5696C36.3393 85.7166 37.9294 86.3609 39.5873 86.3609V86.3609Z" stroke="url(#paint4_linear_126_63)" stroke-width="0.3"/>
</g>
<g filter="url(#filter2_ii_126_63)">
<path d="M39.5873 86.3609C41.2453 86.3609 42.8354 85.7166 44.0077 84.5696C45.1801 83.4227 45.8387 81.8671 45.8387 80.2451C45.8387 78.6231 45.1801 77.0676 44.0077 75.9207C42.8354 74.7737 41.2453 74.1294 39.5873 74.1294C37.9294 74.1294 36.3393 74.7737 35.1669 75.9207C33.9946 77.0676 33.3359 78.6231 33.3359 80.2451C33.3359 81.8671 33.9946 83.4227 35.1669 84.5696C36.3393 85.7166 37.9294 86.3609 39.5873 86.3609Z" fill="url(#paint5_radial_126_63)"/>
</g>
<g filter="url(#filter3_f_126_63)">
<path d="M91.0327 36.189C92.6906 36.189 94.2807 35.5447 95.4531 34.3978C96.6254 33.2508 97.2841 31.6953 97.2841 30.0733C97.2841 28.4513 96.6254 26.8957 95.4531 25.7488C94.2807 24.6019 92.6906 23.9575 91.0327 23.9575C89.3747 23.9575 87.7846 24.6019 86.6122 25.7488C85.4399 26.8957 84.7812 28.4513 84.7812 30.0733C84.7812 31.6953 85.4399 33.2508 86.6122 34.3978C87.7846 35.5447 89.3747 36.189 91.0327 36.189V36.189Z" stroke="url(#paint6_linear_126_63)" stroke-width="0.2"/>
</g>
<g filter="url(#filter4_ii_126_63)">
<path d="M91.0327 36.189C92.6906 36.189 94.2807 35.5447 95.4531 34.3978C96.6254 33.2508 97.2841 31.6953 97.2841 30.0733C97.2841 28.4513 96.6254 26.8957 95.4531 25.7488C94.2807 24.6019 92.6906 23.9575 91.0327 23.9575C89.3747 23.9575 87.7846 24.6019 86.6122 25.7488C85.4399 26.8957 84.7812 28.4513 84.7812 30.0733C84.7812 31.6953 85.4399 33.2508 86.6122 34.3978C87.7846 35.5447 89.3747 36.189 91.0327 36.189Z" fill="url(#paint7_radial_126_63)"/>
</g>
<g filter="url(#filter5_f_126_63)">
<path d="M93.023 55.0429C94.0685 55.0429 95.0712 54.6366 95.8104 53.9134C96.5497 53.1902 96.965 52.2093 96.965 51.1865C96.965 50.1637 96.5497 49.1828 95.8104 48.4596C95.0712 47.7364 94.0685 47.3301 93.023 47.3301C91.9775 47.3301 90.9749 47.7364 90.2356 48.4596C89.4964 49.1828 89.0811 50.1637 89.0811 51.1865C89.0811 52.2093 89.4964 53.1902 90.2356 53.9134C90.9749 54.6366 91.9775 55.0429 93.023 55.0429Z" stroke="url(#paint8_linear_126_63)" stroke-width="0.2"/>
</g>
<g filter="url(#filter6_ii_126_63)">
<path d="M93.023 55.0429C94.0685 55.0429 95.0712 54.6366 95.8104 53.9134C96.5497 53.1902 96.965 52.2093 96.965 51.1865C96.965 50.1637 96.5497 49.1828 95.8104 48.4596C95.0712 47.7364 94.0685 47.3301 93.023 47.3301C91.9775 47.3301 90.9749 47.7364 90.2356 48.4596C89.4964 49.1828 89.0811 50.1637 89.0811 51.1865C89.0811 52.2093 89.4964 53.1902 90.2356 53.9134C90.9749 54.6366 91.9775 55.0429 93.023 55.0429Z" fill="url(#paint9_radial_126_63)"/>
</g>
<g filter="url(#filter7_f_126_63)">
<path d="M73.1133 78.4533C74.682 78.4533 76.2353 78.1511 77.6846 77.5638C79.1339 76.9765 80.4507 76.1157 81.56 75.0305C82.6692 73.9454 83.5491 72.6571 84.1494 71.2393C84.7497 69.8215 85.0587 68.3018 85.0587 66.7672C85.0587 65.2325 84.7497 63.7129 84.1494 62.2951C83.5491 60.8773 82.6692 59.589 81.56 58.5038C80.4507 57.4187 79.1339 56.5579 77.6846 55.9706C76.2353 55.3833 74.682 55.0811 73.1133 55.0811C69.9452 55.0811 66.9069 56.3123 64.6667 58.5038C62.4265 60.6954 61.168 63.6678 61.168 66.7672C61.168 69.8666 62.4265 72.839 64.6667 75.0305C66.9069 77.2221 69.9452 78.4533 73.1133 78.4533V78.4533Z" stroke="url(#paint10_linear_126_63)" stroke-width="0.3"/>
</g>
<g filter="url(#filter8_ii_126_63)">
<path d="M73.1133 78.4533C74.682 78.4533 76.2353 78.1511 77.6846 77.5638C79.1339 76.9765 80.4507 76.1157 81.56 75.0305C82.6692 73.9454 83.5491 72.6571 84.1494 71.2393C84.7497 69.8215 85.0587 68.3018 85.0587 66.7672C85.0587 65.2325 84.7497 63.7129 84.1494 62.2951C83.5491 60.8773 82.6692 59.589 81.56 58.5038C80.4507 57.4187 79.1339 56.5579 77.6846 55.9706C76.2353 55.3833 74.682 55.0811 73.1133 55.0811C69.9452 55.0811 66.9069 56.3123 64.6667 58.5038C62.4265 60.6954 61.168 63.6678 61.168 66.7672C61.168 69.8666 62.4265 72.839 64.6667 75.0305C66.9069 77.2221 69.9452 78.4533 73.1133 78.4533Z" fill="url(#paint11_radial_126_63)"/>
</g>
<defs>
<filter id="filter0_i_126_63" x="0" y="-0.5" width="105.5" height="98.5" filterUnits="userSpaceOnUse" color-interpolation-filters="sRGB">
<feFlood flood-opacity="0" result="BackgroundImageFix"/>
<feBlend mode="normal" in="SourceGraphic" in2="BackgroundImageFix" result="shape"/>
<feColorMatrix in="SourceAlpha" type="matrix" values="0 0 0 0 0 0 0 0 0 0 0 0 0 0 0 0 0 0 127 0" result="hardAlpha"/>
<feOffset dx="0.5" dy="-0.5"/>
<feGaussianBlur stdDeviation="0.5"/>
<feComposite in2="hardAlpha" operator="arithmetic" k2="-1" k3="1"/>
<feColorMatrix type="matrix" values="0 0 0 0 0.721569 0 0 0 0 0.372549 0 0 0 0 0.356863 0 0 0 1 0"/>
<feBlend mode="normal" in2="shape" result="effect1_innerShadow_126_63"/>
</filter>
<filter id="filter1_f_126_63" x="32.8855" y="73.6795" width="13.4027" height="13.1313" filterUnits="userSpaceOnUse" color-interpolation-filters="sRGB">
<feFlood flood-opacity="0" result="BackgroundImageFix"/>
<feBlend mode="normal" in="SourceGraphic" in2="BackgroundImageFix" result="shape"/>
<feGaussianBlur stdDeviation="0.15" result="effect1_foregroundBlur_126_63"/>
</filter>
<filter id="filter2_ii_126_63" x="33.0859" y="73.7294" width="13.0529" height="12.8814" filterUnits="userSpaceOnUse" color-interpolation-filters="sRGB">
<feFlood flood-opacity="0" result="BackgroundImageFix"/>
<feBlend mode="normal" in="SourceGraphic" in2="BackgroundImageFix" result="shape"/>
<feColorMatrix in="SourceAlpha" type="matrix" values="0 0 0 0 0 0 0 0 0 0 0 0 0 0 0 0 0 0 127 0" result="hardAlpha"/>
<feOffset dx="-0.25" dy="0.25"/>
<feGaussianBlur stdDeviation="0.375"/>
<feComposite in2="hardAlpha" operator="arithmetic" k2="-1" k3="1"/>
<feColorMatrix type="matrix" values="0 0 0 0 0.780392 0 0 0 0 0.462745 0 0 0 0 0.254902 0 0 0 1 0"/>
<feBlend mode="normal" in2="shape" result="effect1_innerShadow_126_63"/>
<feColorMatrix in="SourceAlpha" type="matrix" values="0 0 0 0 0 0 0 0 0 0 0 0 0 0 0 0 0 0 127 0" result="hardAlpha"/>
<feOffset dx="0.3" dy="-0.4"/>
<feGaussianBlur stdDeviation="0.5"/>
<feComposite in2="hardAlpha" operator="arithmetic" k2="-1" k3="1"/>
<feColorMatrix type="matrix" values="0 0 0 0 1 0 0 0 0 0.839216 0 0 0 0 0.513726 0 0 0 1 0"/>
<feBlend mode="normal" in2="effect1_innerShadow_126_63" result="effect2_innerShadow_126_63"/>
</filter>
<filter id="filter3_f_126_63" x="84.4816" y="23.6574" width="13.1021" height="12.8316" filterUnits="userSpaceOnUse" color-interpolation-filters="sRGB">
<feFlood flood-opacity="0" result="BackgroundImageFix"/>
<feBlend mode="normal" in="SourceGraphic" in2="BackgroundImageFix" result="shape"/>
<feGaussianBlur stdDeviation="0.1" result="effect1_foregroundBlur_126_63"/>
</filter>
<filter id="filter4_ii_126_63" x="84.5312" y="23.6575" width="13.0529" height="12.7814" filterUnits="userSpaceOnUse" color-interpolation-filters="sRGB">
<feFlood flood-opacity="0" result="BackgroundImageFix"/>
<feBlend mode="normal" in="SourceGraphic" in2="BackgroundImageFix" result="shape"/>
<feColorMatrix in="SourceAlpha" type="matrix" values="0 0 0 0 0 0 0 0 0 0 0 0 0 0 0 0 0 0 127 0" result="hardAlpha"/>
<feOffset dx="-0.25" dy="0.25"/>
<feGaussianBlur stdDeviation="0.2"/>
<feComposite in2="hardAlpha" operator="arithmetic" k2="-1" k3="1"/>
<feColorMatrix type="matrix" values="0 0 0 0 0.847059 0 0 0 0 0.552941 0 0 0 0 0.235294 0 0 0 1 0"/>
<feBlend mode="normal" in2="shape" result="effect1_innerShadow_126_63"/>
<feColorMatrix in="SourceAlpha" type="matrix" values="0 0 0 0 0 0 0 0 0 0 0 0 0 0 0 0 0 0 127 0" result="hardAlpha"/>
<feOffset dx="0.3" dy="-0.3"/>
<feGaussianBlur stdDeviation="0.15"/>
<feComposite in2="hardAlpha" operator="arithmetic" k2="-1" k3="1"/>
<feColorMatrix type="matrix" values="0 0 0 0 1 0 0 0 0 0.921569 0 0 0 0 0.682353 0 0 0 1 0"/>
<feBlend mode="normal" in2="effect1_innerShadow_126_63" result="effect2_innerShadow_126_63"/>
</filter>
<filter id="filter5_f_126_63" x="88.7814" y="47.03" width="8.48398" height="8.31309" filterUnits="userSpaceOnUse" color-interpolation-filters="sRGB">
<feFlood flood-opacity="0" result="BackgroundImageFix"/>
<feBlend mode="normal" in="SourceGraphic" in2="BackgroundImageFix" result="shape"/>
<feGaussianBlur stdDeviation="0.1" result="effect1_foregroundBlur_126_63"/>
</filter>
<filter id="filter6_ii_126_63" x="88.9311" y="47.1301" width="8.23379" height="8.06289" filterUnits="userSpaceOnUse" color-interpolation-filters="sRGB">
<feFlood flood-opacity="0" result="BackgroundImageFix"/>
<feBlend mode="normal" in="SourceGraphic" in2="BackgroundImageFix" result="shape"/>
<feColorMatrix in="SourceAlpha" type="matrix" values="0 0 0 0 0 0 0 0 0 0 0 0 0 0 0 0 0 0 127 0" result="hardAlpha"/>
<feOffset dx="-0.15" dy="0.15"/>
<feGaussianBlur stdDeviation="0.1"/>
<feComposite in2="hardAlpha" operator="arithmetic" k2="-1" k3="1"/>
<feColorMatrix type="matrix" values="0 0 0 0 0.847059 0 0 0 0 0.552941 0 0 0 0 0.235294 0 0 0 1 0"/>
<feBlend mode="normal" in2="shape" result="effect1_innerShadow_126_63"/>
<feColorMatrix in="SourceAlpha" type="matrix" values="0 0 0 0 0 0 0 0 0 0 0 0 0 0 0 0 0 0 127 0" result="hardAlpha"/>
<feOffset dx="0.2" dy="-0.2"/>
<feGaussianBlur stdDeviation="0.1"/>
<feComposite in2="hardAlpha" operator="arithmetic" k2="-1" k3="1"/>
<feColorMatrix type="matrix" values="0 0 0 0 1 0 0 0 0 0.921569 0 0 0 0 0.682353 0 0 0 1 0"/>
<feBlend mode="normal" in2="effect1_innerShadow_126_63" result="effect2_innerShadow_126_63"/>
</filter>
<filter id="filter7_f_126_63" x="60.7176" y="54.6312" width="24.7914" height="24.2724" filterUnits="userSpaceOnUse" color-interpolation-filters="sRGB">
<feFlood flood-opacity="0" result="BackgroundImageFix"/>
<feBlend mode="normal" in="SourceGraphic" in2="BackgroundImageFix" result="shape"/>
<feGaussianBlur stdDeviation="0.15" result="effect1_foregroundBlur_126_63"/>
</filter>
<filter id="filter8_ii_126_63" x="60.918" y="54.6811" width="24.4406" height="24.0221" filterUnits="userSpaceOnUse" color-interpolation-filters="sRGB">
<feFlood flood-opacity="0" result="BackgroundImageFix"/>
<feBlend mode="normal" in="SourceGraphic" in2="BackgroundImageFix" result="shape"/>
<feColorMatrix in="SourceAlpha" type="matrix" values="0 0 0 0 0 0 0 0 0 0 0 0 0 0 0 0 0 0 127 0" result="hardAlpha"/>
<feOffset dx="-0.25" dy="0.25"/>
<feGaussianBlur stdDeviation="0.375"/>
<feComposite in2="hardAlpha" operator="arithmetic" k2="-1" k3="1"/>
<feColorMatrix type="matrix" values="0 0 0 0 0.8 0 0 0 0 0.537255 0 0 0 0 0.270588 0 0 0 1 0"/>
<feBlend mode="normal" in2="shape" result="effect1_innerShadow_126_63"/>
<feColorMatrix in="SourceAlpha" type="matrix" values="0 0 0 0 0 0 0 0 0 0 0 0 0 0 0 0 0 0 127 0" result="hardAlpha"/>
<feOffset dx="0.3" dy="-0.4"/>
<feGaussianBlur stdDeviation="0.5"/>
<feComposite in2="hardAlpha" operator="arithmetic" k2="-1" k3="1"/>
<feColorMatrix type="matrix" values="0 0 0 0 1 0 0 0 0 0.882353 0 0 0 0 0.611765 0 0 0 1 0"/>
<feBlend mode="normal" in2="effect1_innerShadow_126_63" result="effect2_innerShadow_126_63"/>
</filter>
<linearGradient id="paint0_linear_126_63" x1="100.142" y1="24.7213" x2="30.2991" y2="96.8574" gradientUnits="userSpaceOnUse">
<stop stop-color="#FFD874"/>
<stop offset="1" stop-color="#FFBC4C"/>
</linearGradient>
<radialGradient id="paint1_radial_126_63" cx="0" cy="0" r="1" gradientUnits="userSpaceOnUse" gradientTransform="translate(44.3956 45.9016) rotate(-22.9532) scale(62.4301 64.4543)">
<stop offset="0.769" stop-color="#FFECAE" stop-opacity="0"/>
<stop offset="0.984" stop-color="#FFECAE"/>
</radialGradient>
<radialGradient id="paint2_radial_126_63" cx="0" cy="0" r="1" gradientUnits="userSpaceOnUse" gradientTransform="translate(20.5738 102.73) rotate(-39.2289) scale(55.3017 57.7255)">
<stop stop-color="#FF984F"/>
<stop offset="1" stop-color="#FF984F" stop-opacity="0"/>
</radialGradient>
<radialGradient id="paint3_radial_126_63" cx="0" cy="0" r="1" gradientUnits="userSpaceOnUse" gradientTransform="translate(74.1986 25.9969) rotate(13.342) scale(10.4523 25.9581)">
<stop offset="0.23" stop-color="#BA935B"/>
<stop offset="0.979" stop-color="#BA935B" stop-opacity="0"/>
</radialGradient>
<linearGradient id="paint4_linear_126_63" x1="45.0703" y1="77.16" x2="38.0384" y2="80.9172" gradientUnits="userSpaceOnUse">
<stop stop-color="#D0883B"/>
<stop offset="1" stop-color="#FFCA6D"/>
</linearGradient>
<radialGradient id="paint5_radial_126_63" cx="0" cy="0" r="1" gradientUnits="userSpaceOnUse" gradientTransform="translate(36.9297 81.3655) rotate(-22.5297) scale(9.64324 9.49611)">
<stop stop-color="#FFBA6A"/>
<stop offset="1" stop-color="#EB9E58"/>
</radialGradient>
<linearGradient id="paint6_linear_126_63" x1="96.4001" y1="24.8729" x2="86.8613" y2="35.3149" gradientUnits="userSpaceOnUse">
<stop stop-color="#E7AC47"/>
<stop offset="1" stop-color="#FFE9A7"/>
</linearGradient>
<radialGradient id="paint7_radial_126_63" cx="0" cy="0" r="1" gradientUnits="userSpaceOnUse" gradientTransform="translate(88.3724 31.1927) rotate(-15.1999) scale(9.23021 9.05776)">
<stop stop-color="#FFD778"/>
<stop offset="1" stop-color="#FFC767"/>
</radialGradient>
<linearGradient id="paint8_linear_126_63" x1="96.4075" y1="47.9105" x2="90.3918" y2="54.4929" gradientUnits="userSpaceOnUse">
<stop stop-color="#E7AC47"/>
<stop offset="1" stop-color="#FFE9A7"/>
</linearGradient>
<radialGradient id="paint9_radial_126_63" cx="0" cy="0" r="1" gradientUnits="userSpaceOnUse" gradientTransform="translate(91.3431 51.8913) rotate(-15.1999) scale(5.82033 5.71158)">
<stop stop-color="#FFDE8F"/>
<stop offset="1" stop-color="#FFC25B"/>
</radialGradient>
<linearGradient id="paint10_linear_126_63" x1="83.5894" y1="60.8735" x2="70.1568" y2="68.0532" gradientUnits="userSpaceOnUse">
<stop stop-color="#E2A842"/>
<stop offset="1" stop-color="#FFD778"/>
</linearGradient>
<radialGradient id="paint11_radial_126_63" cx="0" cy="0" r="1" gradientUnits="userSpaceOnUse" gradientTransform="translate(68.0371 68.9078) rotate(-22.5297) scale(18.4266 18.1454)">
<stop stop-color="#FFC75F"/>
<stop offset="1" stop-color="#FABC5A"/>
</radialGradient>
</defs>
</svg>
