<svg width="24" height="25" viewBox="0 0 24 25" fill="none" xmlns="http://www.w3.org/2000/svg">
<path d="M18.9559 11.6475H5.14189C4.05199 11.6475 3.16846 12.5174 3.16846 13.5905V20.3912C3.16846 21.4643 4.05199 22.3342 5.14189 22.3342H18.9559C20.0458 22.3342 20.9293 21.4643 20.9293 20.3912V13.5905C20.9293 12.5174 20.0458 11.6475 18.9559 11.6475Z" stroke="white" stroke-linecap="round" stroke-linejoin="round"/>
<path d="M7.11572 11.647V7.76094C7.11572 6.47262 7.63551 5.23707 8.56073 4.32608C9.48596 3.4151 10.7408 2.90332 12.0493 2.90332C13.3578 2.90332 14.6126 3.4151 15.5379 4.32608C16.4631 5.23707 16.9829 6.47262 16.9829 7.76094V11.647" stroke="white" stroke-linecap="round" stroke-linejoin="round"/>
</svg>
